<svg width="48" height="48" viewBox="0 0 48 48" fill="none" xmlns="http://www.w3.org/2000/svg">
<path d="M19.3001 16.2535C19.7645 15.9439 20.3382 15.6672 21 15.453L21 20.547C20.3382 20.3328 19.7645 20.0561 19.3001 19.7465C18.2078 19.0183 18 18.3417 18 18C18 17.6583 18.2078 16.9817 19.3001 16.2535Z" fill="#D92D20"/>
<path d="M27.0001 32.547L27 27.453C27.6619 27.6672 28.2355 27.9439 28.6999 28.2535C29.7923 28.9817 30.0001 29.6583 30.0001 30C30.0001 30.3417 29.7923 31.0183 28.6999 31.7465C28.2355 32.0561 27.6619 32.3328 27.0001 32.547Z" fill="#D92D20"/>
<path fill-rule="evenodd" clip-rule="evenodd" d="M24 48C37.2548 48 48 37.2548 48 24C48 10.7452 37.2548 0 24 0C10.7452 0 0 10.7452 0 24C0 37.2548 10.7452 48 24 48ZM27 9C27 7.34315 25.6569 6 24 6C22.3431 6 21 7.34315 21 9V9.27598C19.1352 9.62618 17.4104 10.3022 15.9719 11.2612C13.8069 12.7046 12 15.028 12 18C12 20.972 13.8069 23.2954 15.9719 24.7388C17.4104 25.6978 19.1352 26.3738 21 26.724L21.0001 32.5477C19.827 32.1669 18.9575 31.5957 18.47 31.0339C17.3841 29.7824 15.4894 29.6482 14.238 30.7341C12.9865 31.82 12.8523 33.7147 13.9382 34.9661C15.6257 36.9109 18.1787 38.1925 21 38.7229L21 38.9999C21 40.6568 22.3431 42 23.9999 42C25.6568 42 27 40.6569 27 39.0001L27 38.724C28.8648 38.3738 30.5896 37.6978 32.0281 36.7388C34.1932 35.2954 36.0001 32.972 36.0001 30C36.0001 27.028 34.1931 24.7045 32.0281 23.2612C30.5896 22.3022 28.8648 21.6262 27 21.276L27 15.4523C28.173 15.8331 29.0425 16.4043 29.5301 16.9661C30.6159 18.2176 32.5107 18.3518 33.7621 17.2659C35.0135 16.18 35.1477 14.2853 34.0619 13.0339C32.3744 11.0891 29.8214 9.80746 27 9.27707V9Z" fill="#D92D20"/>
</svg>
