<svg width="48" height="48" viewBox="0 0 48 48" fill="none" xmlns="http://www.w3.org/2000/svg">
<path fill-rule="evenodd" clip-rule="evenodd" d="M12 4.79999C9.34898 4.79999 7.19995 6.94902 7.19995 9.59999V43.2L15.5999 38.4L23.9999 43.2L32.3999 38.4L40.7999 43.2V9.59999C40.7999 6.94902 38.6509 4.79999 35.9999 4.79999H12ZM17.9999 12C16.0117 12 14.4 13.6118 14.4 15.6C14.4 17.5882 16.0117 19.2 17.9999 19.2C19.9882 19.2 21.5999 17.5882 21.5999 15.6C21.5999 13.6118 19.9882 12 17.9999 12ZM32.897 12.7029C31.9597 11.7657 30.4401 11.7657 29.5029 12.7029L15.1029 27.1029C14.1656 28.0402 14.1656 29.5598 15.1029 30.497C16.0402 31.4343 17.5597 31.4343 18.497 30.497L32.897 16.097C33.8343 15.1598 33.8343 13.6402 32.897 12.7029ZM29.9999 24C28.0117 24 26.3999 25.6118 26.3999 27.6C26.3999 29.5882 28.0117 31.2 29.9999 31.2C31.9882 31.2 33.5999 29.5882 33.5999 27.6C33.5999 25.6118 31.9882 24 29.9999 24Z" fill="#D92D20"/>
</svg>
