<svg width="48" height="48" viewBox="0 0 48 48" fill="none" xmlns="http://www.w3.org/2000/svg">
<path d="M4.80005 12C4.80005 9.34905 6.94908 7.20001 9.60005 7.20001H26.4C29.051 7.20001 31.2 9.34905 31.2 12V21.6C31.2 24.251 29.051 26.4 26.4 26.4H21.6L14.4 33.6V26.4H9.60005C6.94908 26.4 4.80005 24.251 4.80005 21.6V12Z" fill="#D92D20"/>
<path d="M36.0001 16.8V27.2C36.0001 29.4092 34.2092 31.2 32.0001 31.2H23.5883L19.3482 35.4401C20.0197 35.7975 20.7862 36 21.6 36H26.4L33.6 43.2V36H38.4001C41.051 36 43.2001 33.851 43.2001 31.2V21.6C43.2001 18.949 41.051 16.8 38.4001 16.8H36.0001Z" fill="#D92D20"/>
</svg>
