<svg width="48" height="48" viewBox="0 0 48 48" fill="none" xmlns="http://www.w3.org/2000/svg">
<path fill-rule="evenodd" clip-rule="evenodd" d="M9.60005 7.20001C6.94908 7.20001 4.80005 9.34904 4.80005 12V36C4.80005 38.651 6.94909 40.8 9.60005 40.8H38.4001C41.051 40.8 43.2001 38.651 43.2001 36V12C43.2001 9.34904 41.051 7.20001 38.4001 7.20001H9.60005ZM16.8 12L31.2 12V21.6H16.8V12ZM36.0001 31.2V36H38.4001V31.2H36.0001ZM31.2 26.4H16.8V36H31.2V26.4ZM36.0001 26.4H38.4001V21.6H36.0001V26.4ZM38.4001 16.8V12H36.0001V16.8H38.4001ZM12 12V16.8H9.60005V12H12ZM12 21.6H9.60005V26.4H12V21.6ZM9.60005 31.2H12V36H9.60005V31.2Z" fill="#D92D20"/>
</svg>
