<svg width="48" height="48" viewBox="0 0 48 48" fill="none" xmlns="http://www.w3.org/2000/svg">
<path d="M24 8.39999C24 6.41176 25.6118 4.79999 27.6 4.79999C29.5883 4.79999 31.2 6.41176 31.2 8.39999V9.59999C31.2 10.9255 32.2746 12 33.6 12H40.8001C42.1255 12 43.2001 13.0745 43.2001 14.4V21.6C43.2001 22.9255 42.1255 24 40.8001 24H39.6001C37.6118 24 36.0001 25.6118 36.0001 27.6C36.0001 29.5882 37.6118 31.2 39.6001 31.2H40.8001C42.1255 31.2 43.2001 32.2745 43.2001 33.6V40.8C43.2001 42.1255 42.1255 43.2 40.8001 43.2H33.6C32.2746 43.2 31.2 42.1255 31.2 40.8V39.6C31.2 37.6118 29.5883 36 27.6 36C25.6118 36 24 37.6118 24 39.6V40.8C24 42.1255 22.9255 43.2 21.6 43.2H14.4C13.0746 43.2 12 42.1255 12 40.8V33.6C12 32.2745 10.9255 31.2 9.60005 31.2H8.40005C6.41182 31.2 4.80005 29.5882 4.80005 27.6C4.80005 25.6118 6.41182 24 8.40005 24H9.60005C10.9255 24 12 22.9255 12 21.6V14.4C12 13.0745 13.0746 12 14.4 12H21.6C22.9255 12 24 10.9255 24 9.59999V8.39999Z" fill="#D92D20"/>
</svg>
