<svg width="48" height="48" viewBox="0 0 48 48" fill="none" xmlns="http://www.w3.org/2000/svg">
<path fill-rule="evenodd" clip-rule="evenodd" d="M42.6674 19.7324C32.3576 9.42255 15.642 9.42255 5.33216 19.7324C4.39491 20.6697 2.87531 20.6697 1.93805 19.7324C1.00079 18.7951 1.00079 17.2755 1.93805 16.3383C14.1224 4.15392 33.8771 4.15392 46.0615 16.3383C46.9988 17.2755 46.9988 18.7951 46.0615 19.7324C45.1242 20.6697 43.6047 20.6697 42.6674 19.7324ZM35.8792 26.5206C29.3184 19.9598 18.6812 19.9598 12.1204 26.5206C11.1831 27.4579 9.66353 27.4579 8.72627 26.5206C7.78902 25.5834 7.78902 24.0638 8.72627 23.1265C17.1616 14.6912 30.838 14.6912 39.2733 23.1265C40.2105 24.0638 40.2105 25.5834 39.2733 26.5206C38.336 27.4579 36.8164 27.4579 35.8792 26.5206ZM29.0909 33.3089C26.2792 30.4971 21.7204 30.4971 18.9086 33.3089C17.9714 34.2461 16.4518 34.2461 15.5145 33.3089C14.5772 32.3716 14.5772 30.852 15.5145 29.9148C20.2008 25.2285 27.7988 25.2285 32.4851 29.9148C33.4223 30.852 33.4223 32.3716 32.4851 33.3089C31.5478 34.2461 30.0282 34.2461 29.0909 33.3089ZM21.5998 38.4001C21.5998 37.0746 22.6743 36.0001 23.9998 36.0001H24.0238C25.3493 36.0001 26.4238 37.0746 26.4238 38.4001C26.4238 39.7255 25.3493 40.8001 24.0238 40.8001H23.9998C22.6743 40.8001 21.5998 39.7255 21.5998 38.4001Z" fill="#D92D20"/>
</svg>
