<svg width="264" height="60" viewBox="0 0 264 60" fill="none" xmlns="http://www.w3.org/2000/svg">
<path fill-rule="evenodd" clip-rule="evenodd" d="M43.6886 50.3026C41.3631 51.7492 38.7476 52.8286 35.9066 53.4413C22.7824 56.2716 9.81712 48.0711 6.94783 35.1249C4.07854 22.1786 12.3918 9.38912 25.516 6.55874C38.6402 3.72835 51.6055 11.9289 54.4748 24.8751C56.1282 32.3352 54.0684 39.7433 49.5147 45.2237L42.9182 42.6515C42.6357 42.5411 42.3035 42.6069 42.0649 42.8188C41.8262 43.0308 41.7253 43.3498 41.806 43.6373L43.6886 50.3026ZM16.4228 39.4712C15.1558 38.7696 14.3536 37.8264 14.0161 36.6416C13.714 35.447 13.8745 33.9362 14.4976 32.1092L20.8348 13.2085C20.9419 12.9156 21.0273 12.7134 21.0908 12.6018C21.4083 12.0438 21.8306 11.72 22.3577 11.6303C22.9075 11.5531 23.5104 11.6962 24.1665 12.0596C25.5241 12.8113 25.9794 13.8412 25.5325 15.1494L18.5642 34.8454C18.4515 35.2526 18.391 35.5419 18.3827 35.7134C18.3871 35.8626 18.4458 35.9685 18.5589 36.0311C18.8304 36.1815 19.1652 35.9853 19.5633 35.4426L30.8269 20.5907C31.6458 19.5178 32.59 18.8519 33.6597 18.5931C34.7521 18.3468 35.8526 18.5306 36.9612 19.1445C38.0698 19.7584 38.7907 20.5831 39.1238 21.6187C39.4794 22.6669 39.4063 23.8151 38.9042 25.0634L31.9168 42.2832C31.6544 42.9011 31.659 43.2852 31.9305 43.4355C32.0437 43.4982 32.1659 43.4925 32.2973 43.4185C32.4414 43.3222 32.6603 43.1205 32.954 42.8135L46.3705 26.6882C47.2699 25.6306 48.3983 25.4776 49.7558 26.2293C50.412 26.5927 50.8385 27.0196 51.0354 27.5102C51.2549 28.0134 51.2059 28.5439 50.8884 29.1019C50.8249 29.2135 50.6943 29.3906 50.4966 29.6334L37.4397 44.8132C36.1831 46.2893 34.9479 47.205 33.7341 47.5602C32.5557 47.9056 31.3329 47.7275 30.0659 47.0259C28.7989 46.3243 28.0306 45.3999 27.761 44.2527C27.4915 43.1054 27.7008 41.6657 28.389 39.9335L34.9216 23.8266C35.0668 23.4668 35.1436 23.2011 35.152 23.0296C35.1603 22.8581 35.0966 22.7348 34.9608 22.6596C34.8251 22.5845 34.6852 22.595 34.5411 22.6914C34.397 22.7877 34.2071 22.9907 33.9713 23.3004L23.434 37.1897C22.2933 38.6714 21.1564 39.5974 20.0232 39.9679C18.8899 40.3383 17.6898 40.1728 16.4228 39.4712Z" fill="url(#paint0_linear_8_248)"/>
<path d="M42.6636 43.8966L45.1199 53.5669C45.1599 53.7201 45.3044 53.8192 45.4723 53.8046C45.6407 53.7905 45.7885 53.6672 45.8311 53.5051L47.1681 48.4698L52.3915 47.83C52.5595 47.8098 52.7034 47.6808 52.7398 47.5187C52.7654 47.4086 52.7369 47.3017 52.67 47.2261C52.6378 47.1896 52.5969 47.1606 52.5486 47.1415L43.1866 43.4451C43.0585 43.3944 42.9052 43.4245 42.793 43.5215C42.6808 43.6186 42.6303 43.7648 42.6636 43.8966Z" fill="#29398F"/>
<path d="M88.5192 20.2656C88.9085 20.2656 89.2685 20.4096 89.5994 20.6976C89.9303 20.9664 90.0958 21.3408 90.0958 21.8208C90.0958 21.9552 90.0666 22.1184 90.0082 22.3104L84.023 39.5904C83.9257 39.8784 83.7505 40.0992 83.4975 40.2528C83.2445 40.4064 82.9817 40.4928 82.7092 40.512C82.4367 40.512 82.1642 40.4352 81.8917 40.2816C81.6192 40.128 81.4148 39.8976 81.2786 39.5904L76.6656 28.9344L76.9284 29.0496L72.3739 39.5904C72.2181 39.8976 72.004 40.128 71.7315 40.2816C71.4785 40.4352 71.206 40.512 70.9141 40.512C70.661 40.4928 70.408 40.4064 70.155 40.2528C69.9019 40.0992 69.7268 39.8784 69.6294 39.5904L63.6443 22.3104C63.5859 22.1184 63.5567 21.9552 63.5567 21.8208C63.5567 21.3408 63.7319 20.9664 64.0822 20.6976C64.4326 20.4096 64.7927 20.2656 65.1625 20.2656C65.4739 20.2656 65.7561 20.352 66.0092 20.5248C66.2816 20.6784 66.4666 20.9088 66.5639 21.216L71.6148 36.0768H71.0892L75.527 25.3632C75.6633 25.0752 75.8482 24.8448 76.0817 24.672C76.3348 24.4992 76.617 24.4224 76.9284 24.4416C77.2398 24.4224 77.5123 24.4992 77.7459 24.672C77.9989 24.8448 78.1838 25.0752 78.3006 25.3632L82.5048 35.76L82.0669 35.9904L87.0886 21.216C87.1859 20.9088 87.3708 20.6784 87.6433 20.5248C87.9158 20.352 88.2078 20.2656 88.5192 20.2656Z" fill="#1C1036"/>
<path d="M99.4829 40.8C97.8674 40.8 96.466 40.4736 95.2787 39.8208C94.0914 39.1488 93.1669 38.2368 92.5051 37.0848C91.8628 35.9136 91.5416 34.5792 91.5416 33.0816C91.5416 31.392 91.8822 29.952 92.5635 28.7616C93.2642 27.552 94.1693 26.6304 95.2787 25.9968C96.3881 25.344 97.5657 25.0176 98.8114 25.0176C99.7651 25.0176 100.67 25.2096 101.527 25.5936C102.383 25.9584 103.142 26.4768 103.804 27.1488C104.485 27.8016 105.02 28.5792 105.41 29.4816C105.799 30.3648 106.003 31.3344 106.023 32.3904C106.003 32.7744 105.848 33.0912 105.556 33.3408C105.264 33.5904 104.923 33.7152 104.534 33.7152H93.1766L92.4759 31.2672H103.454L102.899 31.7856V31.0656C102.86 30.3936 102.636 29.808 102.227 29.3088C101.819 28.7904 101.313 28.3968 100.709 28.128C100.106 27.84 99.4732 27.696 98.8114 27.696C98.2275 27.696 97.663 27.792 97.118 27.984C96.5925 28.1568 96.1157 28.4448 95.6874 28.848C95.2787 29.2512 94.9478 29.7888 94.6948 30.4608C94.4612 31.1136 94.3444 31.9296 94.3444 32.9088C94.3444 33.9648 94.5683 34.8864 95.0159 35.6736C95.4636 36.4608 96.067 37.0752 96.8261 37.5168C97.5852 37.9392 98.4221 38.1504 99.3369 38.1504C100.057 38.1504 100.651 38.0832 101.118 37.9488C101.585 37.7952 101.974 37.6128 102.286 37.4016C102.597 37.1904 102.87 36.9888 103.103 36.7968C103.395 36.624 103.687 36.5376 103.979 36.5376C104.329 36.5376 104.621 36.6624 104.855 36.912C105.089 37.1424 105.205 37.4208 105.205 37.7472C105.205 38.1696 104.991 38.5536 104.563 38.8992C104.037 39.3984 103.308 39.84 102.373 40.224C101.458 40.608 100.495 40.8 99.4829 40.8Z" fill="#1C1036"/>
<path d="M117.06 25.0176C118.422 25.0176 119.629 25.3536 120.68 26.0256C121.751 26.6976 122.597 27.6288 123.22 28.8192C123.843 29.9904 124.154 31.344 124.154 32.88C124.154 34.416 123.843 35.7792 123.22 36.9696C122.597 38.16 121.76 39.1008 120.709 39.792C119.658 40.464 118.471 40.8 117.147 40.8C116.408 40.8 115.707 40.6848 115.045 40.4544C114.383 40.2048 113.8 39.8976 113.293 39.5328C112.787 39.1488 112.369 38.7456 112.038 38.3232C111.727 37.9008 111.532 37.5072 111.454 37.1424L112.242 36.768V39.2736C112.242 39.6768 112.096 40.0224 111.804 40.3104C111.532 40.5792 111.191 40.7136 110.783 40.7136C110.354 40.7136 110.004 40.5792 109.732 40.3104C109.459 40.0416 109.323 39.696 109.323 39.2736V20.6688C109.323 20.2464 109.459 19.9008 109.732 19.632C110.004 19.344 110.354 19.2 110.783 19.2C111.191 19.2 111.532 19.344 111.804 19.632C112.096 19.9008 112.242 20.2464 112.242 20.6688V28.7616L111.775 28.5024C111.834 28.1376 112.019 27.7632 112.33 27.3792C112.641 26.976 113.031 26.592 113.498 26.2272C113.984 25.8624 114.529 25.5744 115.133 25.3632C115.756 25.1328 116.398 25.0176 117.06 25.0176ZM116.739 27.6672C115.804 27.6672 114.987 27.8976 114.286 28.3584C113.605 28.8192 113.07 29.4432 112.68 30.2304C112.291 30.9984 112.096 31.8816 112.096 32.88C112.096 33.8784 112.291 34.7808 112.68 35.5872C113.07 36.3744 113.605 36.9984 114.286 37.4592C114.987 37.92 115.804 38.1504 116.739 38.1504C117.653 38.1504 118.451 37.92 119.133 37.4592C119.814 36.9984 120.349 36.3648 120.738 35.5584C121.147 34.752 121.352 33.8592 121.352 32.88C121.352 31.8816 121.147 30.9984 120.738 30.2304C120.349 29.4432 119.814 28.8192 119.133 28.3584C118.451 27.8976 117.653 27.6672 116.739 27.6672Z" fill="#1C1036"/>
<path d="M126.551 38.1504C126.376 37.8816 126.298 37.5744 126.318 37.2288C126.337 36.864 126.541 36.5568 126.931 36.3072C127.203 36.1344 127.485 36.0672 127.777 36.1056C128.089 36.1248 128.381 36.2688 128.653 36.5376C129.198 37.1328 129.802 37.6032 130.463 37.9488C131.145 38.2944 131.962 38.4672 132.916 38.4672C133.305 38.448 133.704 38.3904 134.113 38.2944C134.522 38.1792 134.872 37.9872 135.164 37.7184C135.456 37.4304 135.602 37.0176 135.602 36.48C135.602 36 135.446 35.616 135.135 35.328C134.823 35.04 134.415 34.8096 133.908 34.6368C133.402 34.4448 132.857 34.272 132.274 34.1184C131.651 33.9456 131.018 33.7536 130.376 33.5424C129.753 33.3312 129.188 33.0624 128.682 32.736C128.176 32.3904 127.758 31.9488 127.427 31.4112C127.116 30.8736 126.96 30.2112 126.96 29.424C126.96 28.5216 127.213 27.744 127.719 27.0912C128.244 26.4384 128.916 25.9296 129.733 25.5648C130.57 25.2 131.476 25.0176 132.449 25.0176C133.013 25.0176 133.607 25.0944 134.23 25.248C134.852 25.3824 135.456 25.6032 136.04 25.9104C136.624 26.2176 137.13 26.6208 137.558 27.12C137.753 27.3696 137.86 27.6672 137.879 28.0128C137.918 28.3584 137.762 28.6656 137.412 28.9344C137.178 29.1264 136.896 29.2128 136.565 29.1936C136.234 29.1744 135.962 29.0688 135.748 28.8768C135.378 28.416 134.901 28.0608 134.317 27.8112C133.733 27.5424 133.072 27.408 132.332 27.408C131.962 27.408 131.573 27.4656 131.164 27.5808C130.775 27.6768 130.444 27.8592 130.171 28.128C129.899 28.3968 129.763 28.7904 129.763 29.3088C129.763 29.7888 129.918 30.1728 130.23 30.4608C130.561 30.7488 130.989 30.9888 131.514 31.1808C132.04 31.3728 132.614 31.5456 133.237 31.6992C133.84 31.8528 134.434 32.0352 135.018 32.2464C135.621 32.4576 136.157 32.736 136.624 33.0816C137.11 33.408 137.5 33.84 137.792 34.3776C138.103 34.896 138.259 35.5584 138.259 36.3648C138.259 37.3056 137.976 38.112 137.412 38.784C136.867 39.4368 136.166 39.936 135.31 40.2816C134.473 40.6272 133.587 40.8 132.653 40.8C131.544 40.8 130.434 40.608 129.325 40.224C128.235 39.8208 127.31 39.1296 126.551 38.1504Z" fill="#1C1036"/>
<path d="M144.143 39.0432C144.143 39.4656 144.007 39.8208 143.734 40.1088C143.462 40.3776 143.111 40.512 142.683 40.512C142.274 40.512 141.924 40.3776 141.632 40.1088C141.359 39.8208 141.223 39.4656 141.223 39.0432V26.7168C141.223 26.2944 141.359 25.9488 141.632 25.68C141.924 25.392 142.274 25.248 142.683 25.248C143.111 25.248 143.462 25.392 143.734 25.68C144.007 25.9488 144.143 26.2944 144.143 26.7168V39.0432ZM142.654 23.3472C142.089 23.3472 141.681 23.2512 141.428 23.0592C141.175 22.848 141.048 22.5024 141.048 22.0224V21.5616C141.048 21.0816 141.184 20.7456 141.457 20.5536C141.729 20.3616 142.138 20.2656 142.683 20.2656C143.267 20.2656 143.685 20.3712 143.938 20.5824C144.191 20.7744 144.318 21.1008 144.318 21.5616V22.0224C144.318 22.5216 144.182 22.8672 143.909 23.0592C143.656 23.2512 143.238 23.3472 142.654 23.3472Z" fill="#1C1036"/>
<path d="M147.866 25.536H154.727C155.116 25.536 155.437 25.6704 155.69 25.9392C155.963 26.1888 156.099 26.5056 156.099 26.8896C156.099 27.2544 155.963 27.5616 155.69 27.8112C155.437 28.0608 155.116 28.1856 154.727 28.1856H147.866C147.476 28.1856 147.146 28.0608 146.873 27.8112C146.62 27.5424 146.494 27.2256 146.494 26.8608C146.494 26.4768 146.62 26.16 146.873 25.9104C147.146 25.6608 147.476 25.536 147.866 25.536ZM150.931 21.792C151.359 21.792 151.71 21.936 151.982 22.224C152.255 22.4928 152.391 22.8384 152.391 23.2608V36.624C152.391 36.9696 152.449 37.248 152.566 37.4592C152.683 37.6704 152.839 37.8144 153.033 37.8912C153.247 37.968 153.462 38.0064 153.676 38.0064C153.89 38.0064 154.075 37.968 154.23 37.8912C154.406 37.8144 154.61 37.776 154.844 37.776C155.077 37.776 155.291 37.8816 155.486 38.0928C155.68 38.304 155.778 38.592 155.778 38.9568C155.778 39.4176 155.525 39.792 155.019 40.08C154.513 40.368 153.968 40.512 153.384 40.512C153.053 40.512 152.664 40.4832 152.216 40.4256C151.768 40.368 151.33 40.224 150.902 39.9936C150.493 39.7632 150.153 39.3984 149.88 38.8992C149.608 38.3808 149.471 37.6608 149.471 36.7392V23.2608C149.471 22.8384 149.608 22.4928 149.88 22.224C150.172 21.936 150.523 21.792 150.931 21.792Z" fill="#1C1036"/>
<path d="M166.343 40.8C164.727 40.8 163.326 40.4736 162.138 39.8208C160.951 39.1488 160.027 38.2368 159.365 37.0848C158.722 35.9136 158.401 34.5792 158.401 33.0816C158.401 31.392 158.742 29.952 159.423 28.7616C160.124 27.552 161.029 26.6304 162.138 25.9968C163.248 25.344 164.425 25.0176 165.671 25.0176C166.625 25.0176 167.53 25.2096 168.386 25.5936C169.243 25.9584 170.002 26.4768 170.664 27.1488C171.345 27.8016 171.88 28.5792 172.269 29.4816C172.659 30.3648 172.863 31.3344 172.882 32.3904C172.863 32.7744 172.707 33.0912 172.415 33.3408C172.123 33.5904 171.783 33.7152 171.393 33.7152H160.036L159.336 31.2672H170.313L169.759 31.7856V31.0656C169.72 30.3936 169.496 29.808 169.087 29.3088C168.678 28.7904 168.172 28.3968 167.569 28.128C166.965 27.84 166.333 27.696 165.671 27.696C165.087 27.696 164.523 27.792 163.978 27.984C163.452 28.1568 162.975 28.4448 162.547 28.848C162.138 29.2512 161.808 29.7888 161.554 30.4608C161.321 31.1136 161.204 31.9296 161.204 32.9088C161.204 33.9648 161.428 34.8864 161.876 35.6736C162.323 36.4608 162.927 37.0752 163.686 37.5168C164.445 37.9392 165.282 38.1504 166.197 38.1504C166.917 38.1504 167.51 38.0832 167.978 37.9488C168.445 37.7952 168.834 37.6128 169.145 37.4016C169.457 37.1904 169.729 36.9888 169.963 36.7968C170.255 36.624 170.547 36.5376 170.839 36.5376C171.189 36.5376 171.481 36.6624 171.715 36.912C171.948 37.1424 172.065 37.4208 172.065 37.7472C172.065 38.1696 171.851 38.5536 171.423 38.8992C170.897 39.3984 170.167 39.84 169.233 40.224C168.318 40.608 167.355 40.8 166.343 40.8Z" fill="#1C1036"/>
<path d="M181.7 20.3232C181.933 20.3232 182.176 20.3808 182.43 20.496C182.683 20.6112 182.877 20.7744 183.013 20.9856L190.429 32.1312L189.174 32.0736L196.736 20.9856C197.047 20.544 197.446 20.3232 197.933 20.3232C198.322 20.3232 198.662 20.4672 198.954 20.7552C199.266 21.024 199.422 21.3696 199.422 21.792V39.0432C199.422 39.4656 199.285 39.8208 199.013 40.1088C198.74 40.3776 198.38 40.512 197.933 40.512C197.465 40.512 197.086 40.3776 196.794 40.1088C196.521 39.8208 196.385 39.4656 196.385 39.0432V24.4416L197.319 24.6432L190.896 34.2912C190.76 34.464 190.585 34.6176 190.371 34.752C190.157 34.8672 189.933 34.9152 189.699 34.896C189.485 34.9152 189.261 34.8672 189.028 34.752C188.814 34.6176 188.639 34.464 188.502 34.2912L182.313 24.7872L183.013 23.6352V39.0432C183.013 39.4656 182.877 39.8208 182.605 40.1088C182.352 40.3776 182.011 40.512 181.583 40.512C181.174 40.512 180.833 40.3776 180.561 40.1088C180.308 39.8208 180.181 39.4656 180.181 39.0432V21.792C180.181 21.3888 180.327 21.0432 180.619 20.7552C180.931 20.4672 181.291 20.3232 181.7 20.3232Z" fill="#1C1036"/>
<path d="M215.312 25.3632C215.721 25.3632 216.061 25.5072 216.334 25.7952C216.626 26.064 216.772 26.4096 216.772 26.832V34.4064C216.772 36.4032 216.207 37.968 215.078 39.1008C213.949 40.2144 212.353 40.7712 210.29 40.7712C208.246 40.7712 206.66 40.2144 205.531 39.1008C204.422 37.968 203.867 36.4032 203.867 34.4064V26.832C203.867 26.4096 204.003 26.064 204.276 25.7952C204.548 25.5072 204.899 25.3632 205.327 25.3632C205.736 25.3632 206.076 25.5072 206.349 25.7952C206.641 26.064 206.787 26.4096 206.787 26.832V34.4064C206.787 35.6544 207.079 36.5856 207.663 37.2C208.266 37.8144 209.142 38.1216 210.29 38.1216C211.458 38.1216 212.344 37.8144 212.947 37.2C213.55 36.5856 213.852 35.6544 213.852 34.4064V26.832C213.852 26.4096 213.988 26.064 214.261 25.7952C214.533 25.5072 214.884 25.3632 215.312 25.3632Z" fill="#1C1036"/>
<path d="M222.291 40.512C221.863 40.512 221.513 40.3776 221.24 40.1088C220.968 39.8208 220.831 39.4656 220.831 39.0432V26.832C220.831 26.4096 220.968 26.064 221.24 25.7952C221.513 25.5072 221.863 25.3632 222.291 25.3632C222.7 25.3632 223.041 25.5072 223.313 25.7952C223.605 26.064 223.751 26.4096 223.751 26.832V30.0576L223.459 28.8192C223.615 28.2816 223.848 27.7824 224.16 27.3216C224.491 26.8608 224.88 26.4576 225.328 26.112C225.775 25.7664 226.272 25.4976 226.817 25.3056C227.381 25.1136 227.965 25.0176 228.568 25.0176C229.074 25.0176 229.512 25.152 229.882 25.4208C230.252 25.6896 230.437 26.0256 230.437 26.4288C230.437 26.9472 230.301 27.3312 230.028 27.5808C229.756 27.8112 229.454 27.9264 229.123 27.9264C228.831 27.9264 228.549 27.8688 228.276 27.7536C228.004 27.6192 227.683 27.552 227.313 27.552C226.904 27.552 226.486 27.6576 226.058 27.8688C225.629 28.08 225.24 28.3968 224.89 28.8192C224.539 29.2224 224.257 29.7024 224.043 30.2592C223.848 30.816 223.751 31.44 223.751 32.1312V39.0432C223.751 39.4656 223.605 39.8208 223.313 40.1088C223.041 40.3776 222.7 40.512 222.291 40.512Z" fill="#1C1036"/>
<path d="M245.276 25.1328C245.704 25.1328 246.054 25.2768 246.327 25.5648C246.599 25.8336 246.735 26.1792 246.735 26.6016V39.0432C246.735 39.4656 246.599 39.8208 246.327 40.1088C246.054 40.3776 245.704 40.512 245.276 40.512C244.867 40.512 244.517 40.3776 244.225 40.1088C243.952 39.8208 243.816 39.4656 243.816 39.0432V36.9696L244.429 37.056C244.429 37.4016 244.283 37.7856 243.991 38.208C243.719 38.6304 243.339 39.0432 242.852 39.4464C242.366 39.8304 241.792 40.1568 241.13 40.4256C240.468 40.6752 239.758 40.8 238.999 40.8C237.656 40.8 236.449 40.464 235.378 39.792C234.308 39.1008 233.461 38.16 232.838 36.9696C232.215 35.7792 231.904 34.4256 231.904 32.9088C231.904 31.3536 232.215 29.9904 232.838 28.8192C233.461 27.6288 234.298 26.6976 235.349 26.0256C236.42 25.3536 237.607 25.0176 238.911 25.0176C239.748 25.0176 240.517 25.152 241.217 25.4208C241.938 25.6896 242.56 26.0352 243.086 26.4576C243.612 26.88 244.011 27.3312 244.283 27.8112C244.575 28.272 244.721 28.7136 244.721 29.136L243.816 29.2224V26.6016C243.816 26.1984 243.952 25.8528 244.225 25.5648C244.517 25.2768 244.867 25.1328 245.276 25.1328ZM239.32 38.1504C240.235 38.1504 241.042 37.92 241.743 37.4592C242.444 36.9984 242.989 36.3744 243.378 35.5872C243.767 34.7808 243.962 33.888 243.962 32.9088C243.962 31.9104 243.767 31.0176 243.378 30.2304C242.989 29.4432 242.444 28.8192 241.743 28.3584C241.042 27.8976 240.235 27.6672 239.32 27.6672C238.424 27.6672 237.626 27.8976 236.926 28.3584C236.244 28.8192 235.699 29.4432 235.291 30.2304C234.901 31.0176 234.707 31.9104 234.707 32.9088C234.707 33.888 234.901 34.7808 235.291 35.5872C235.699 36.3744 236.244 36.9984 236.926 37.4592C237.626 37.92 238.424 38.1504 239.32 38.1504Z" fill="#1C1036"/>
<path d="M258.563 25.104C259.906 25.104 260.947 25.392 261.687 25.968C262.426 26.5248 262.942 27.2832 263.234 28.2432C263.545 29.2032 263.701 30.2592 263.701 31.4112V39.0432C263.701 39.4656 263.555 39.8208 263.263 40.1088C262.991 40.3776 262.65 40.512 262.241 40.512C261.813 40.512 261.463 40.3776 261.19 40.1088C260.918 39.8208 260.781 39.4656 260.781 39.0432V31.4112C260.781 30.7392 260.684 30.1248 260.489 29.568C260.314 29.0112 259.993 28.5696 259.526 28.2432C259.078 27.9168 258.446 27.7536 257.628 27.7536C256.869 27.7536 256.188 27.9168 255.585 28.2432C255.001 28.5696 254.543 29.0112 254.212 29.568C253.901 30.1248 253.745 30.7392 253.745 31.4112V39.0432C253.745 39.4656 253.599 39.8208 253.307 40.1088C253.035 40.3776 252.694 40.512 252.285 40.512C251.857 40.512 251.507 40.3776 251.234 40.1088C250.962 39.8208 250.826 39.4656 250.826 39.0432V20.6688C250.826 20.2464 250.962 19.9008 251.234 19.632C251.507 19.344 251.857 19.2 252.285 19.2C252.694 19.2 253.035 19.344 253.307 19.632C253.599 19.9008 253.745 20.2464 253.745 20.6688V28.5312L253.22 28.8192C253.356 28.3968 253.58 27.9648 253.891 27.5232C254.222 27.0816 254.621 26.6784 255.088 26.3136C255.575 25.9488 256.11 25.6608 256.694 25.4496C257.278 25.2192 257.901 25.104 258.563 25.104Z" fill="#1C1036"/>
<defs>
<linearGradient id="paint0_linear_8_248" x1="30.7113" y1="6" x2="30.7113" y2="54" gradientUnits="userSpaceOnUse">
<stop stop-color="#03AEEF"/>
<stop offset="1" stop-color="#0345EF"/>
</linearGradient>
</defs>
</svg>
