<?xml version="1.0" standalone="no"?>
<!DOCTYPE svg PUBLIC "-//W3C//DTD SVG 20010904//EN"
 "http://www.w3.org/TR/2001/REC-SVG-20010904/DTD/svg10.dtd">
<svg version="1.0" xmlns="http://www.w3.org/2000/svg"
 width="4961.000000pt" height="1998.000000pt" viewBox="0 0 4961.000000 1998.000000"
 preserveAspectRatio="xMidYMid meet">

<g transform="translate(0.000000,1998.000000) scale(0.100000,-0.100000)"
fill="#000000" stroke="none">
<path d="M27781 16375 c-484 -106 -823 -498 -848 -982 -14 -269 66 -521 232
-730 87 -111 173 -181 344 -281 10 -6 -178 -118 -623 -373 -420 -240 -656
-380 -690 -411 -127 -114 -175 -311 -117 -481 40 -115 114 -197 230 -255 65
-32 84 -37 166 -40 67 -3 108 0 151 13 39 11 249 126 607 332 l547 315 1 741
c0 547 3 751 12 777 19 56 59 70 198 70 64 0 130 -5 147 -11 65 -22 62 7 62
-694 0 -349 2 -635 5 -635 4 0 382 216 842 481 867 499 867 499 924 468 13 -7
740 -420 1614 -918 875 -497 1615 -913 1645 -924 43 -15 75 -18 150 -15 84 3
104 8 171 39 137 66 225 183 251 337 24 144 -21 283 -126 387 -55 54 -231 157
-1802 1053 -958 546 -1766 1002 -1795 1014 -72 28 -211 30 -286 5 -29 -10
-205 -106 -393 -213 -187 -107 -342 -194 -345 -194 -3 0 -5 45 -5 99 0 389
-228 756 -576 930 -165 82 -295 111 -491 110 -77 0 -166 -7 -202 -14z m-151
-495 c28 -28 25 -51 -13 -96 -85 -99 -126 -200 -134 -324 -8 -139 28 -256 114
-366 54 -68 55 -71 42 -96 -29 -56 -65 -51 -128 17 -95 104 -152 256 -152 405
-1 172 58 324 174 448 35 37 68 41 97 12z m858 -36 c164 -184 201 -459 93
-689 -35 -74 -112 -178 -143 -192 -31 -14 -65 0 -80 32 -10 22 -8 30 10 53
106 134 142 219 149 348 9 144 -22 243 -116 368 -28 38 -51 73 -51 78 0 17 49
58 69 58 11 0 41 -24 69 -56z m-653 -149 c33 -32 32 -45 -14 -100 -44 -54 -61
-101 -61 -174 0 -62 15 -102 64 -165 20 -26 36 -52 36 -57 0 -16 -48 -59 -66
-59 -10 0 -39 22 -65 49 -96 100 -122 255 -62 382 33 71 100 149 127 149 9 0
28 -11 41 -25z m423 -8 c68 -62 120 -200 108 -290 -11 -79 -44 -152 -93 -207
-53 -59 -83 -63 -116 -18 l-21 28 33 42 c58 77 73 122 69 203 -3 60 -8 79 -33
115 -54 77 -58 86 -52 112 7 27 43 48 67 40 8 -3 25 -14 38 -25z m-207 -206
c16 -16 29 -38 29 -49 0 -33 -48 -82 -80 -82 -31 0 -80 48 -80 79 0 36 46 78
88 80 8 1 27 -12 43 -28z"/>
<path d="M18016 15205 c-196 -207 -373 -400 -392 -430 -85 -127 -85 -284 -1
-392 25 -33 777 -663 790 -663 13 0 729 772 754 813 81 131 77 277 -12 393
-18 24 -639 543 -771 646 -8 6 -127 -113 -368 -367z"/>
<path d="M15793 15540 c-445 -57 -687 -306 -732 -759 -7 -65 -11 -515 -11
-1235 l0 -1131 -45 100 c-164 364 -426 632 -755 771 -384 162 -924 173 -1357
28 -695 -232 -1170 -855 -1353 -1774 -94 -475 -101 -1090 -16 -1591 149 -881
579 -1512 1214 -1782 459 -196 1089 -209 1549 -33 303 116 570 339 729 610 21
36 42 66 46 66 4 0 8 -13 8 -29 0 -50 47 -215 83 -292 101 -217 273 -340 547
-390 98 -18 438 -18 540 0 108 19 219 47 300 77 l70 26 0 3609 0 3608 -27 15
c-53 27 -198 67 -313 87 -132 23 -371 32 -477 19z m-1471 -3344 c180 -50 324
-131 443 -251 120 -119 196 -250 252 -430 l28 -90 3 -724 c3 -701 2 -726 -18
-805 -83 -333 -367 -600 -725 -682 -113 -27 -330 -24 -437 4 -319 86 -537 287
-680 629 -183 438 -197 1161 -31 1636 137 396 398 653 733 723 88 18 354 12
432 -10z"/>
<path d="M3620 15300 c-116 -15 -265 -49 -357 -82 l-83 -30 2 -3226 3 -3227
26 -95 c66 -238 185 -393 377 -489 102 -51 188 -77 324 -97 246 -36 614 7 816
96 l42 19 0 3103 c0 1972 -4 3151 -10 3234 -13 164 -37 264 -94 379 -102 208
-288 341 -557 400 -89 19 -380 28 -489 15z"/>
<path d="M20575 15304 c-169 -24 -300 -54 -393 -91 l-62 -25 3 -3242 c3 -3538
-1 -3263 56 -3429 126 -364 462 -545 971 -524 212 9 382 43 517 102 l53 24 0
1420 0 1421 1268 -2 1267 -3 5 -1135 6 -1135 22 -85 c69 -261 239 -452 479
-540 141 -51 236 -65 453 -64 245 0 387 23 563 91 l67 26 0 3222 c0 2876 -2
3232 -16 3305 -84 446 -394 670 -927 670 -218 0 -456 -40 -597 -101 l-50 -21
0 -1414 0 -1414 -1270 0 -1269 0 -4 1118 c-3 1098 -3 1118 -24 1203 -81 328
-288 529 -623 604 -72 16 -419 30 -495 19z"/>
<path d="M28390 13565 l-1515 -872 -3 -2234 c-1 -1564 1 -2250 9 -2286 26
-129 143 -280 259 -336 127 -61 -77 -57 2835 -57 2933 0 2722 -4 2849 63 127
67 229 208 255 351 8 42 11 731 11 2251 l0 2191 -1584 902 c-871 496 -1588
902 -1593 901 -4 0 -690 -394 -1523 -874z m1996 -149 c360 -48 640 -132 935
-282 898 -457 1397 -1411 1338 -2563 -20 -394 -98 -736 -241 -1061 -328 -744
-981 -1253 -1815 -1414 -240 -46 -303 -51 -628 -51 -348 0 -490 15 -755 81
-377 92 -734 267 -1012 495 -261 214 -474 487 -629 804 -279 573 -361 1293
-224 1970 234 1163 1102 1919 2335 2035 132 12 563 4 696 -14z"/>
<path d="M29795 12239 c-218 -31 -437 -143 -570 -291 -169 -188 -277 -443
-331 -783 -21 -138 -30 -538 -15 -701 41 -435 158 -738 366 -949 100 -102 173
-154 286 -202 137 -60 215 -75 409 -80 152 -4 188 -2 280 17 477 98 758 466
847 1110 24 174 24 586 0 760 -92 663 -394 1040 -894 1115 -106 16 -282 18
-378 4z"/>
<path d="M8782 13410 c-304 -25 -582 -118 -813 -271 -120 -80 -303 -262 -383
-382 -32 -48 -82 -135 -111 -193 l-52 -106 -6 98 c-7 128 -36 237 -91 349 -55
111 -116 189 -198 254 -215 170 -527 225 -913 161 -110 -19 -255 -59 -307 -86
l-28 -15 0 -2554 0 -2555 775 0 774 0 4 1678 c3 1570 4 1682 21 1751 79 331
283 549 603 648 82 25 101 27 273 27 212 1 263 -8 397 -74 178 -88 301 -258
362 -502 45 -180 44 -142 48 -1870 l4 -1658 775 0 775 0 -4 1833 c-3 1971 -1
1884 -53 2135 -152 739 -652 1217 -1375 1316 -139 19 -350 26 -477 16z"/>
<path d="M36868 13410 c-607 -50 -1084 -369 -1303 -870 -16 -36 -32 -69 -37
-74 -4 -6 -8 26 -8 70 0 104 -15 191 -49 292 -91 264 -304 436 -616 498 -127
25 -379 23 -535 -5 -115 -20 -261 -61 -312 -87 l-28 -15 0 -2554 0 -2555 775
0 775 0 0 1630 c0 1091 4 1663 11 1727 42 379 258 646 594 734 112 29 308 29
418 0 255 -67 436 -261 522 -558 62 -214 59 -112 62 -1900 l4 -1633 769 0 770
0 2 1708 3 1707 23 79 c77 271 266 483 508 566 164 57 388 70 535 31 282 -74
438 -271 511 -646 22 -109 22 -119 25 -1777 l4 -1668 775 0 775 0 -4 1873 c-3
2039 0 1915 -57 2162 -47 202 -138 415 -251 585 -125 188 -358 394 -563 497
-480 242 -1149 253 -1625 27 -350 -165 -636 -485 -794 -884 l-18 -45 -33 81
c-196 479 -509 791 -935 931 -197 64 -460 92 -693 73z"/>
<path d="M44903 13410 c-732 -50 -1336 -348 -1746 -860 -281 -351 -462 -803
-534 -1340 -25 -184 -25 -704 0 -890 88 -649 321 -1161 709 -1559 532 -545
1294 -800 2218 -742 751 47 1290 256 1552 601 207 272 235 663 66 915 -79 119
-192 203 -342 255 l-54 18 -51 -67 c-64 -87 -210 -225 -299 -285 -330 -219
-801 -304 -1256 -226 -509 87 -853 384 -961 831 -13 53 -26 127 -29 165 -4 38
-9 93 -12 122 l-5 52 1629 0 1630 0 6 43 c37 250 33 768 -9 1065 -153 1086
-869 1774 -1970 1891 -138 15 -406 20 -542 11z m342 -1120 c411 -36 676 -253
791 -649 25 -87 58 -306 48 -322 -6 -11 -1911 -12 -1917 -1 -8 15 14 200 34
280 103 416 413 664 869 695 25 2 50 4 55 5 6 1 60 -3 120 -8z"/>
<path d="M17620 11098 c0 -1905 2 -2237 15 -2321 73 -482 398 -716 965 -694
207 8 398 45 527 103 l53 23 0 2555 0 2556 -780 0 -780 0 0 -2222z"/>
<path d="M33870 5473 c0 -1426 -1 -1393 50 -1494 68 -132 228 -200 422 -179
70 8 164 34 181 49 4 4 -4 28 -18 53 -14 25 -35 81 -47 124 l-23 79 -5 1230
c-5 1230 -5 1230 -26 1276 -30 64 -88 125 -148 157 -48 25 -60 27 -218 30
l-168 4 0 -1329z"/>
<path d="M34830 5315 l0 -1485 275 0 275 0 2 477 3 477 353 -412 c195 -227
372 -427 395 -444 56 -41 131 -75 192 -88 29 -6 152 -9 294 -8 l244 3 -393
453 c-216 250 -411 467 -434 484 -49 36 -114 67 -175 83 -25 6 -46 16 -48 22
-2 5 24 20 57 32 118 43 160 86 533 541 192 234 357 437 368 453 l20 27 -319
0 -320 0 -377 -462 c-207 -255 -381 -464 -386 -466 -5 -2 -9 354 -9 897 l0
901 -275 0 -275 0 0 -1485z"/>
<path d="M46790 5470 c0 -934 3 -1345 11 -1382 15 -70 64 -161 108 -200 81
-72 214 -105 350 -87 65 8 157 31 183 46 4 2 -6 31 -22 63 -67 133 -64 57 -70
1415 l-5 1230 -33 67 c-39 79 -93 129 -169 158 -45 17 -78 20 -203 20 l-150 0
0 -1330z"/>
<path d="M30054 6700 c-103 -21 -185 -87 -230 -184 -22 -47 -24 -64 -24 -218
l0 -168 415 0 415 0 0 -982 c0 -1061 0 -1060 53 -1165 68 -134 234 -205 426
-183 81 10 177 35 186 49 2 5 -8 38 -25 72 -65 141 -63 95 -69 1279 l-6 1075
-22 58 c-65 172 -196 296 -373 353 -47 15 -102 18 -380 20 -179 1 -344 -1
-366 -6z"/>
<path d="M31014 6699 c-7 -12 -9 -10 68 -68 102 -76 174 -191 210 -335 43
-171 31 -166 383 -166 231 0 281 3 306 16 54 27 59 57 59 324 l0 240 -509 0
c-356 0 -512 -3 -517 -11z"/>
<path d="M32452 5950 c-366 -52 -675 -290 -806 -623 -145 -367 -101 -818 108
-1111 171 -240 458 -387 812 -415 280 -22 534 27 767 146 l87 45 0 239 c0 131
-2 239 -3 239 -2 0 -40 -22 -85 -49 -102 -61 -223 -112 -338 -142 -116 -31
-361 -34 -464 -6 -178 48 -306 148 -378 298 -23 46 -44 99 -47 117 l-7 32 725
0 725 0 6 28 c23 123 12 341 -25 492 -108 434 -439 700 -889 715 -69 2 -153 0
-188 -5z m322 -448 c35 -17 85 -49 109 -71 68 -63 130 -192 139 -291 l3 -35
-454 -3 -453 -2 6 37 c12 71 84 201 145 261 102 103 209 144 353 138 71 -3 98
-9 152 -34z"/>
<path d="M37645 5949 c-428 -58 -756 -325 -878 -714 -38 -122 -51 -217 -51
-365 1 -277 79 -504 240 -701 278 -340 816 -467 1273 -300 401 147 650 503
668 957 13 328 -82 595 -291 813 -146 152 -327 248 -556 296 -92 20 -310 27
-405 14z m301 -493 c169 -45 303 -176 361 -351 35 -108 43 -279 18 -389 -62
-281 -284 -452 -559 -433 -233 16 -408 167 -473 408 -24 88 -24 281 0 369 53
199 191 347 370 395 67 18 218 19 283 1z"/>
<path d="M40195 5951 c-179 -30 -329 -121 -395 -240 -14 -24 -29 -45 -33 -45
-4 -1 -18 24 -31 55 -27 68 -53 103 -105 141 -68 50 -113 60 -278 66 l-153 4
0 -1051 0 -1051 280 0 279 0 3 623 c4 684 2 664 68 805 35 75 115 158 185 192
43 22 64 25 155 25 95 0 110 -3 156 -27 59 -31 119 -94 145 -152 35 -80 39
-157 39 -818 l0 -648 275 0 275 0 0 528 c0 290 5 575 10 635 18 187 68 307
164 395 65 60 125 84 217 90 135 8 238 -39 306 -141 61 -91 63 -113 63 -846
l0 -661 280 0 280 0 0 718 c0 438 -4 750 -10 801 -42 330 -275 555 -625 602
-294 39 -580 -72 -745 -287 l-47 -61 -29 56 c-64 124 -210 230 -371 272 -87
22 -278 33 -358 20z"/>
<path d="M43355 5949 c-38 -5 -110 -20 -160 -34 -290 -83 -460 -259 -496 -517
-30 -213 50 -398 225 -523 111 -79 204 -117 541 -220 143 -44 247 -96 278
-139 16 -23 22 -45 22 -88 0 -48 -5 -62 -31 -95 -67 -83 -157 -108 -356 -101
-231 9 -435 82 -607 218 -28 22 -53 40 -56 40 -3 0 -5 -110 -5 -244 l0 -245
28 -19 c92 -65 297 -140 457 -167 131 -22 377 -22 500 0 360 64 567 254 604
553 26 210 -45 403 -193 523 -111 90 -234 144 -499 219 -211 60 -274 87 -331
142 -48 46 -49 48 -44 98 8 77 61 135 147 161 59 17 210 22 304 10 156 -21
362 -94 457 -161 15 -11 31 -20 34 -20 3 0 6 103 6 230 l0 229 -72 35 c-160
76 -337 116 -543 121 -77 2 -171 0 -210 -6z"/>
<path d="M45410 5954 c-14 -2 -56 -9 -95 -15 -226 -36 -455 -171 -600 -352
-167 -208 -245 -470 -232 -780 23 -583 400 -961 1006 -1007 279 -21 547 33
784 157 l67 35 0 239 c0 132 -2 239 -4 239 -2 0 -46 -25 -97 -55 -101 -59
-209 -105 -329 -138 -104 -28 -363 -31 -460 -4 -152 41 -280 128 -351 238 -31
50 -79 166 -79 194 0 13 97 15 724 15 l723 0 7 38 c11 70 6 297 -9 391 -37
225 -145 437 -288 567 -117 106 -277 187 -432 219 -78 16 -284 28 -335 19z
m215 -428 c149 -39 258 -153 300 -311 8 -33 15 -72 15 -87 l0 -28 -451 0 -452
0 7 43 c19 115 141 283 246 337 112 58 231 74 335 46z"/>
<path d="M26853 5720 c-18 -10 -40 -31 -50 -47 -17 -26 -18 -73 -18 -819 0
-786 0 -793 21 -821 43 -59 124 -78 191 -46 47 22 73 66 73 126 0 26 2 47 4
47 3 0 29 -24 58 -53 103 -103 215 -147 373 -147 165 0 288 51 402 165 113
115 168 249 179 440 26 418 -238 721 -611 703 -147 -8 -243 -53 -352 -167
l-53 -56 0 300 c0 283 -1 302 -20 333 -36 60 -134 81 -197 42z m731 -739 c147
-72 229 -245 205 -435 -17 -132 -97 -249 -208 -303 -49 -24 -68 -28 -146 -28
-78 0 -97 4 -146 28 -70 34 -152 119 -187 194 -24 53 -27 69 -27 173 1 139 21
201 92 280 115 128 272 163 417 91z"/>
<path d="M28341 5242 c-51 -26 -75 -63 -75 -119 0 -41 36 -128 240 -583 271
-604 258 -555 175 -641 -59 -60 -95 -68 -201 -44 -64 15 -83 16 -114 5 -53
-17 -78 -61 -73 -123 5 -61 32 -89 112 -119 89 -32 256 -31 340 2 76 30 156
109 207 205 20 39 147 336 282 661 265 636 267 644 226 712 -48 78 -169 82
-228 8 -10 -14 -90 -215 -177 -448 -87 -233 -161 -426 -164 -430 -3 -4 -75
165 -160 375 -197 491 -211 520 -255 541 -44 21 -92 20 -135 -2z"/>
</g>
</svg>
