<svg width="48" height="48" viewBox="0 0 48 48" fill="none" xmlns="http://www.w3.org/2000/svg">
<path fill-rule="evenodd" clip-rule="evenodd" d="M28.2162 4.8804C28.8815 5.05709 29.4389 5.51097 29.7468 6.12669C30.9073 8.44778 31.7735 9.85651 32.6449 10.9987C33.527 12.1549 34.46 13.1013 35.8793 14.5207C39.1593 17.8006 40.8 22.1043 40.7999 26.4001C40.7999 30.6958 39.1593 34.9995 35.8793 38.2794C29.3185 44.8402 18.6814 44.8402 12.1206 38.2794C8.84063 34.9995 7.19996 30.6958 7.19995 26.4001C7.19994 22.1043 8.84062 17.8006 12.1206 14.5207C12.807 13.8343 13.8392 13.6289 14.7361 14.0004C15.6329 14.3719 16.2176 15.247 16.2176 16.2177C16.2176 18.9053 16.3854 20.9531 17.1715 22.5865C17.6037 23.4846 18.278 24.3627 19.4401 25.1463C19.7176 22.6005 20.226 19.4987 20.913 16.5546C21.4538 14.2367 22.1265 11.9225 22.9271 9.99277C23.3276 9.02755 23.7805 8.10849 24.2948 7.31496C24.7954 6.54257 25.4386 5.75658 26.2689 5.20308C26.8417 4.82123 27.5508 4.70371 28.2162 4.8804ZM29.0911 36.2912C26.2793 39.1029 21.7206 39.1029 18.9088 36.2912C17.5029 34.8853 16.8 33.0426 16.8 31.2C16.8 31.2 18.9088 32.4 22.8001 32.4C22.8001 30 24.0001 22.8 25.8001 21.6C27.0001 24 27.6852 24.703 29.0911 26.1088C30.497 27.5147 31.2 29.3574 31.1999 31.2C31.1999 33.0426 30.497 34.8853 29.0911 36.2912Z" fill="#D92D20"/>
</svg>
