<svg width="48" height="48" viewBox="0 0 48 48" fill="none" xmlns="http://www.w3.org/2000/svg">
<path d="M4.80005 7.19999C4.80005 5.8745 5.87457 4.79999 7.20005 4.79999H12.3669C13.5402 4.79999 14.5414 5.64818 14.7343 6.80543L16.5086 17.4515C16.6819 18.4908 16.157 19.5215 15.2146 19.9927L11.4991 21.8505C14.1782 28.508 19.4921 33.8218 26.1496 36.501L28.0073 32.7854C28.4785 31.8431 29.5092 31.3182 30.5485 31.4914L41.1946 33.2657C42.3519 33.4586 43.2001 34.4599 43.2001 35.6331V40.8C43.2001 42.1255 42.1255 43.2 40.8001 43.2H36.0001C18.7688 43.2 4.80005 29.2313 4.80005 12V7.19999Z" fill="#D92D20"/>
</svg>
