<svg width="48" height="48" viewBox="0 0 48 48" fill="none" xmlns="http://www.w3.org/2000/svg">
<path fill-rule="evenodd" clip-rule="evenodd" d="M7.19995 12C7.19995 9.34905 9.34898 7.20001 12 7.20001H35.9999C38.6509 7.20001 40.7999 9.34905 40.7999 12V31.2C40.7999 33.851 38.6509 36 35.9999 36H30.6739L30.9671 37.173L32.8971 39.1029C33.5835 39.7893 33.7888 40.8216 33.4173 41.7184C33.0459 42.6152 32.1707 43.2 31.2 43.2H16.8C15.8293 43.2 14.9542 42.6152 14.5827 41.7184C14.2112 40.8216 14.4166 39.7893 15.103 39.1029L17.0329 37.173L17.3262 36H12C9.34898 36 7.19995 33.851 7.19995 31.2V12ZM21.0511 28.8C21.0157 28.7992 20.9805 28.7992 20.9454 28.8H12V12H35.9999V28.8H27.0547C27.0196 28.7992 26.9843 28.7992 26.949 28.8H21.0511Z" fill="#D92D20"/>
</svg>
