<svg width="24" height="24" viewBox="0 0 24 24" fill="none" xmlns="http://www.w3.org/2000/svg">
<g clip-path="url(#clip0_7_755)">
<path d="M0 24L1.69627 17.8403C0.647564 16.0323 0.0974211 13.9848 0.103152 11.8916C0.103152 5.3327 5.46704 0 12.0516 0C15.2493 0 18.2521 1.23764 20.5043 3.48479C22.7622 5.73194 24.0057 8.72053 24 11.8973C24 18.4563 18.6361 23.789 12.0458 23.789H12.0401C10.0401 23.789 8.07449 23.2871 6.32664 22.3403L0 24ZM6.63037 20.1901L6.9914 20.4068C8.51575 21.308 10.2636 21.7814 12.0458 21.7871H12.0516C17.5243 21.7871 21.9828 17.3555 21.9828 11.903C21.9828 9.26236 20.9513 6.78137 19.0773 4.91065C17.2034 3.03992 14.7049 2.01331 12.0516 2.01331C6.57879 2.0076 2.12034 6.43916 2.12034 11.8916C2.12034 13.7567 2.64183 15.576 3.63897 17.1502L3.87392 17.5266L2.87106 21.1711L6.63037 20.1901Z" fill="white"/>
<path d="M0.418213 23.5838L2.05718 17.6351C1.04285 15.8956 0.509903 13.9165 0.509903 11.8975C0.515634 5.5667 5.69041 0.416504 12.0514 0.416504C15.1403 0.416504 18.0342 1.61422 20.2119 3.78152C22.3895 5.94882 23.5872 8.83476 23.5872 11.9032C23.5872 18.234 18.4067 23.3842 12.0514 23.3842H12.0457C10.1145 23.3842 8.21763 22.8994 6.53282 21.9869L0.418213 23.5838Z" fill="white"/>
<path d="M0 24L1.69627 17.8403C0.647564 16.0323 0.0974211 13.9848 0.103152 11.8916C0.103152 5.3327 5.46704 0 12.0516 0C15.2493 0 18.2521 1.23764 20.5043 3.48479C22.7622 5.73194 24.0057 8.72053 24 11.8973C24 18.4563 18.6361 23.789 12.0458 23.789H12.0401C10.0401 23.789 8.07449 23.2871 6.32664 22.3403L0 24ZM6.63037 20.1901L6.9914 20.4068C8.51575 21.308 10.2636 21.7814 12.0458 21.7871H12.0516C17.5243 21.7871 21.9828 17.3555 21.9828 11.903C21.9828 9.26236 20.9513 6.78137 19.0773 4.91065C17.2034 3.03992 14.7049 2.01331 12.0516 2.01331C6.57879 2.0076 2.12034 6.43916 2.12034 11.8916C2.12034 13.7567 2.64183 15.576 3.63897 17.1502L3.87392 17.5266L2.87106 21.1711L6.63037 20.1901Z" fill="url(#paint0_linear_7_755)"/>
<path fill-rule="evenodd" clip-rule="evenodd" d="M9.06576 6.91843C8.84226 6.42223 8.60731 6.41082 8.39527 6.40512C8.22335 6.39941 8.02278 6.39941 7.82221 6.39941C7.62163 6.39941 7.30072 6.47356 7.02565 6.77014C6.75057 7.06671 5.98267 7.78535 5.98267 9.25113C5.98267 10.7112 7.0543 12.1257 7.2033 12.3253C7.35229 12.5249 9.27206 15.6218 12.3036 16.8139C14.8251 17.8063 15.3408 17.6066 15.8852 17.5553C16.4297 17.504 17.6503 16.8367 17.9024 16.1409C18.1488 15.445 18.1488 14.8519 18.0743 14.7264C17.9998 14.6009 17.7993 14.5268 17.5013 14.3785C17.2033 14.2302 15.7362 13.5116 15.4612 13.4089C15.1861 13.312 14.9855 13.2606 14.7907 13.5572C14.5901 13.8538 14.017 14.5211 13.8451 14.7207C13.6732 14.9203 13.4956 14.9431 13.1976 14.7949C12.8996 14.6466 11.9368 14.3329 10.7964 13.3177C9.90816 12.5306 9.30645 11.5553 9.13453 11.2587C8.96261 10.9622 9.11733 10.8025 9.26633 10.6542C9.39814 10.523 9.56433 10.3063 9.71332 10.1352C9.86232 9.96405 9.91389 9.83858 10.0113 9.63896C10.1087 9.43934 10.0629 9.26824 9.98839 9.11995C9.9139 8.97736 9.32937 7.50588 9.06576 6.91843Z" fill="#757575"/>
</g>
<defs>
<linearGradient id="paint0_linear_7_755" x1="12.0023" y1="23.9977" x2="12.0023" y2="0" gradientUnits="userSpaceOnUse">
<stop stop-color="#F9F9F9"/>
<stop offset="1" stop-color="white"/>
</linearGradient>
<clipPath id="clip0_7_755">
<rect width="24" height="24" rx="6" fill="white"/>
</clipPath>
</defs>
</svg>
