<svg width="48" height="49" viewBox="0 0 48 49" fill="none" xmlns="http://www.w3.org/2000/svg">
<g filter="url(#filter0_d_203_249)">
<path d="M12 7.20001C10.6745 7.20001 9.60001 8.27453 9.60001 9.60001C9.60001 10.9255 10.6745 12 12 12C25.2548 12 36 22.7452 36 36C36 37.3255 37.0745 38.4 38.4 38.4C39.7255 38.4 40.8 37.3255 40.8 36C40.8 20.0942 27.9058 7.20001 12 7.20001Z" fill="#F04438"/>
<path d="M9.60001 21.6C9.60001 20.2745 10.6745 19.2 12 19.2C21.2784 19.2 28.8 26.7216 28.8 36C28.8 37.3255 27.7255 38.4 26.4 38.4C25.0745 38.4 24 37.3255 24 36C24 29.3726 18.6274 24 12 24C10.6745 24 9.60001 22.9255 9.60001 21.6Z" fill="#F04438"/>
<path d="M7.20001 36C7.20001 33.349 9.34905 31.2 12 31.2C14.651 31.2 16.8 33.349 16.8 36C16.8 38.651 14.651 40.8 12 40.8C9.34905 40.8 7.20001 38.651 7.20001 36Z" fill="#F04438"/>
</g>
<defs>
<filter id="filter0_d_203_249" x="-4" y="0" width="56" height="56" filterUnits="userSpaceOnUse" color-interpolation-filters="sRGB">
<feFlood flood-opacity="0" result="BackgroundImageFix"/>
<feColorMatrix in="SourceAlpha" type="matrix" values="0 0 0 0 0 0 0 0 0 0 0 0 0 0 0 0 0 0 127 0" result="hardAlpha"/>
<feOffset dy="4"/>
<feGaussianBlur stdDeviation="2"/>
<feComposite in2="hardAlpha" operator="out"/>
<feColorMatrix type="matrix" values="0 0 0 0 0 0 0 0 0 0 0 0 0 0 0 0 0 0 0.25 0"/>
<feBlend mode="normal" in2="BackgroundImageFix" result="effect1_dropShadow_203_249"/>
<feBlend mode="normal" in="SourceGraphic" in2="effect1_dropShadow_203_249" result="shape"/>
</filter>
</defs>
</svg>
